<svg width="143" height="25" viewBox="0 0 143 25" fill="none" xmlns="http://www.w3.org/2000/svg">
<g id="Stars">
<path id="Star 1" d="M12.1662 0.630615L14.7855 8.77065H23.2618L16.4043 13.8015L19.0237 21.9415L12.1662 16.9107L5.30868 21.9415L7.92801 13.8015L1.07052 8.77065H9.54685L12.1662 0.630615Z" fill="#56B280"/>
<path id="Star 2" d="M40.5446 0.630615L43.1639 8.77065H51.6403L44.7828 13.8015L47.4021 21.9415L40.5446 16.9107L33.6871 21.9415L36.3064 13.8015L29.4489 8.77065H37.9253L40.5446 0.630615Z" fill="#56B280"/>
<path id="Star 3" d="M68.923 0.630615L71.5423 8.77065H80.0187L73.1612 13.8015L75.7805 21.9415L68.923 16.9107L62.0655 21.9415L64.6848 13.8015L57.8274 8.77065H66.3037L68.923 0.630615Z" fill="#56B280"/>
<path id="Star 4" d="M97.3014 0.630615L99.9208 8.77065H108.397L101.54 13.8015L104.159 21.9415L97.3014 16.9107L90.4439 21.9415L93.0633 13.8015L86.2058 8.77065H94.6821L97.3014 0.630615Z" fill="#56B280"/>
<g id="Star 5">
<path d="M130.725 0.630615L133.344 8.77065H141.82L134.963 13.8015L137.582 21.9415L130.725 16.9107L123.867 21.9415L126.487 13.8015L119.629 8.77065H128.105L130.725 0.630615Z" fill="#5BC08A"/>
<path d="M130.725 0.630615L133.344 8.77065H141.82L134.963 13.8015L137.582 21.9415L130.725 16.9107L123.867 21.9415L126.487 13.8015L119.629 8.77065H128.105L130.725 0.630615Z" fill="url(#paint0_linear_1604_6)"/>
</g>
</g>
<defs>
<linearGradient id="paint0_linear_1604_6" x1="133.694" y1="15.3561" x2="110.357" y2="13.4301" gradientUnits="userSpaceOnUse">
<stop stop-color="white"/>
<stop offset="1" stop-color="white" stop-opacity="0"/>
</linearGradient>
</defs>
</svg>
